<?xml version="1.0" standalone="no"?>
<!DOCTYPE svg PUBLIC "-//W3C//DTD SVG 20010904//EN"
 "http://www.w3.org/TR/2001/REC-SVG-20010904/DTD/svg10.dtd">
<svg version="1.0" xmlns="http://www.w3.org/2000/svg"
 width="1000.000000pt" height="750.000000pt" viewBox="0 0 1000.000000 750.000000"
 preserveAspectRatio="xMidYMid meet">

<g transform="translate(0.000000,750.000000) scale(0.100000,-0.100000)"
fill="#000000" stroke="none">
<path d="M1900 6235 l0 -255 365 0 365 0 -3 -1982 c-3 -2175 1 -2016 -61
-2182 -61 -163 -182 -265 -354 -302 -79 -16 -240 -17 -332 0 -85 15 -89 31
-21 92 126 113 176 362 111 552 -76 219 -304 353 -580 339 -178 -9 -304 -65
-403 -178 -94 -107 -144 -234 -154 -389 -24 -396 251 -739 682 -849 196 -50
254 -56 580 -56 249 0 333 4 425 18 411 64 719 206 950 437 246 245 374 563
410 1014 6 81 10 756 10 1807 l0 1679 270 0 270 0 0 255 0 255 -1265 0 -1265
0 0 -255z"/>
<path d="M5020 6235 l0 -255 270 0 270 0 0 -2180 0 -2180 -270 0 -270 0 0
-255 0 -255 2075 0 2075 0 0 795 0 795 -450 0 -450 0 0 -515 0 -515 -730 0
-730 0 0 2155 0 2155 290 0 290 0 0 255 0 255 -1185 0 -1185 0 0 -255z"/>
</g>
</svg>
